HIERARCHY
ROOT Hips
{
 OFFSET 0.000000 0.000000 0.000000
 CHANNELS 6 Xposition Yposition Zposition Yrotation Xrotation Zrotation
 JOINT Chest
 {
  OFFSET 0.000000 9.585900 0.002600
  CHANNELS 3 Yrotation Xrotation Zrotation
  JOINT Chest2
  {
   OFFSET 0.000000 9.601200 -0.005300
   CHANNELS 3 Yrotation Xrotation Zrotation
   JOINT Chest3
   {
    OFFSET 0.000000 9.561800 0.000000
    CHANNELS 3 Yrotation Xrotation Zrotation
    JOINT Chest4
    {
     OFFSET 0.000000 9.552100 0.000000
     CHANNELS 3 Yrotation Xrotation Zrotation
     JOINT Neck
     {
      OFFSET 0.000000 14.453000 0.000000
      CHANNELS 3 Yrotation Xrotation Zrotation
      JOINT Head
      {
       OFFSET 0.000000 8.936500 -0.011300
       CHANNELS 3 Yrotation Xrotation Zrotation
       End Site
       {
        OFFSET 0.000000 17.073600 -0.006000
       }
      }
     }
     JOINT RightCollar
     {
      OFFSET -2.921100 9.558500 0.000000
      CHANNELS 3 Yrotation Xrotation Zrotation
      JOINT RightShoulder
      {
       OFFSET -13.519700 0.000000 0.000000
       CHANNELS 3 Yrotation Xrotation Zrotation
       JOINT RightElbow
       {
        OFFSET 0.000000 -29.696600 0.000000
        CHANNELS 3 Yrotation Xrotation Zrotation
        JOINT RightWrist
        {
         OFFSET 0.000000 -24.004700 0.000000
         CHANNELS 3 Yrotation Xrotation Zrotation
         End Site
         {
          OFFSET 0.000000 -17.728500 0.000000
         }
        }
       }
      }
     }
     JOINT LeftCollar
     {
      OFFSET 2.921100 9.558500 0.000000
      CHANNELS 3 Yrotation Xrotation Zrotation
      JOINT LeftShoulder
      {
       OFFSET 13.519700 0.000000 0.000000
       CHANNELS 3 Yrotation Xrotation Zrotation
       JOINT LeftElbow
       {
        OFFSET 0.000000 -29.696600 0.000000
        CHANNELS 3 Yrotation Xrotation Zrotation
        JOINT LeftWrist
        {
         OFFSET 0.000000 -24.004700 0.000000
         CHANNELS 3 Yrotation Xrotation Zrotation
         End Site
         {
          OFFSET 0.000000 -17.728500 0.000000
         }
        }
       }
      }
     }
    }
   }
  }
 }
 JOINT RightHip
 {
  OFFSET -7.771700 -0.012900 -0.001300
  CHANNELS 3 Yrotation Xrotation Zrotation
  JOINT RightKnee
  {
   OFFSET 0.000000 -40.869800 0.001200
   CHANNELS 3 Yrotation Xrotation Zrotation
   JOINT RightAnkle
   {
    OFFSET 0.000000 -39.717900 0.002100
    CHANNELS 3 Yrotation Xrotation Zrotation
    JOINT RightToe
    {
     OFFSET 0.000000 -4.965400 11.033500
     CHANNELS 3 Yrotation Xrotation Zrotation
     End Site
     {
      OFFSET 0.000000 -1.423100 5.872300
     }
    }
   }
  }
 }
 JOINT LeftHip
 {
  OFFSET 7.771700 -0.012900 -0.001300
  CHANNELS 3 Yrotation Xrotation Zrotation
  JOINT LeftKnee
  {
   OFFSET 0.000000 -40.869800 0.001200
   CHANNELS 3 Yrotation Xrotation Zrotation
   JOINT LeftAnkle
   {
    OFFSET 0.000000 -39.717900 0.002100
    CHANNELS 3 Yrotation Xrotation Zrotation
    JOINT LeftToe
    {
     OFFSET 0.000000 -4.965400 11.033500
     CHANNELS 3 Yrotation Xrotation Zrotation
     End Site
     {
      OFFSET 0.000000 -1.423100 5.872300
     }
    }
   }
  }
 }
}
MOTION
Frames: 13
Frame Time: 0.008333
0.000000 85.388000 0.000000 0.000000 -5.767877 0.000000 0.000000 11.653817 0.000000 0.000000 -5.885947 0.000000 0.000000 -0.000000 0.000000 0.000000 -0.000000 0.000000 0.000000 12.528835 0.000000 0.000000 0.711642 0.000000 0.000000 -0.000000 0.000000 0.000000 0.000000 -90.000000 0.000000 -2.309062 0.000000 0.000000 2.309062 0.000000 0.000000 -0.000000 0.000000 0.000000 -0.000000 90.000000 0.000000 -2.309062 0.000000 0.000000 2.309062 0.000000 0.000000 8.520406 0.000000 0.000000 1.905762 0.000000 -0.000000 -4.658285 0.000000 0.000000 -0.000000 0.000000 0.000000 8.520406 0.000000 0.000000 1.905762 0.000000 -0.000000 -4.658285 0.000000 0.000000 -0.000000 0.000000
-15.401857 58.298413 47.979465 -175.636418 -30.441850 -4.107793 -0.611980 21.760306 3.763698 -0.264776 2.854537 0.293685 -0.424313 4.651803 0.472204 -1.473775 18.162891 1.688832 -0.317372 14.132587 -1.370460 -0.080039 -9.523170 -2.475424 1.631369 -2.732576 0.316051 21.431576 -23.987163 -21.623531 62.178207 -59.804591 -5.283191 25.822666 -22.426734 -53.549245 -5.612981 -4.794937 -1.738661 -3.568253 -17.542269 -2.527364 -84.930139 -50.899481 47.946299 -12.138059 -18.214255 41.109106 5.636295 -40.419630 -6.968428 -4.449713 67.634353 -5.259037 5.520541 10.653259 9.755329 -0.078773 -7.546541 0.366515 -11.458136 -47.770386 -1.603004 28.236023 65.620678 27.776686 -8.200752 33.223339 3.761699 0.090338 -20.385816 -6.605059
-15.406856 58.296907 47.981554 -175.535378 -30.433518 -4.125181 -0.685058 21.759003 3.741970 -0.269784 2.855060 0.293329 -0.435522 4.651466 0.470121 -1.486481 18.166706 1.684413 -0.323645 14.135306 -1.379028 -0.083628 -9.528495 -2.472746 1.641676 -2.735573 0.314618 21.424544 -23.988565 -21.624522 62.176105 -59.803518 -5.283964 25.822270 -22.420677 -53.543025 -5.618155 -4.799136 -1.738987 -3.565548 -17.544723 -2.520858 -84.922714 -50.899710 47.937673 -12.137412 -18.185291 41.097268 5.568150 -40.416727 -7.019148 -4.408899 67.639742 -5.216219 5.515589 10.646084 9.748379 -0.084095 -7.545190 0.366543 -11.485636 -47.779553 -1.664991 28.288460 65.589692 27.833510 -8.261745 33.240148 3.742929 0.104227 -20.388292 -6.594357
-15.409558 58.295634 47.983124 -175.485688 -30.433626 -4.129793 -0.712542 21.761589 3.733140 -0.283287 2.855054 0.290880 -0.430722 4.653153 0.471398 -1.507084 18.168780 1.679388 -0.340847 14.148085 -1.394602 -0.081462 -9.533814 -2.476182 1.653652 -2.737428 0.312489 21.415222 -23.989630 -21.625847 62.179989 -59.807104 -5.286223 25.823131 -22.420122 -53.547750 -5.622366 -4.805776 -1.740283 -3.567623 -17.544398 -2.513437 -84.903503 -50.901490 47.925618 -12.135354 -18.171220 41.082941 5.543106 -40.410496 -7.053227 -4.389056 67.637769 -5.188239 5.509769 10.645309 9.738344 -0.081146 -7.541607 0.369596 -11.498012 -47.780730 -1.699725 28.302349 65.581739 27.848750 -8.280816 33.243430 3.731471 0.110004 -20.389287 -6.586436
-15.411336 58.293996 47.984974 -175.443132 -30.433864 -4.135927 -0.736532 21.763025 3.728407 -0.293640 2.856668 0.286002 -0.433448 4.654609 0.471357 -1.521489 18.168482 1.677673 -0.342233 14.152451 -1.400746 -0.092748 -9.523719 -2.489352 1.666298 -2.738209 0.309569 21.409691 -23.987685 -21.629150 62.182101 -59.807893 -5.283756 25.829515 -22.419747 -53.558177 -5.616747 -4.808121 -1.739532 -3.585541 -17.546436 -2.498847 -84.876828 -50.912884 47.913219 -12.140413 -18.147876 41.078431 5.524736 -40.404781 -7.085026 -4.381476 67.632930 -5.166115 5.512032 10.646785 9.728662 -0.081501 -7.538042 0.371580 -11.494054 -47.784792 -1.733991 28.297758 65.579990 27.854904 -8.316206 33.263114 3.721094 0.131355 -20.407823 -6.587551
-15.423662 58.287526 47.993844 -175.386199 -30.389082 -4.083217 -0.809817 21.719806 3.650658 -0.277000 2.857011 0.292384 -0.444364 4.655650 0.469732 -1.546905 18.167370 1.668824 -0.340600 14.154310 -1.403177 -0.110917 -9.505950 -2.503721 1.675372 -2.738215 0.304956 21.403149 -23.984395 -21.628834 62.186568 -59.811400 -5.282117 25.837017 -22.411509 -53.565058 -5.618064 -4.810345 -1.740208 -3.585308 -17.545142 -2.495007 -84.879666 -50.913951 47.913420 -12.142157 -18.129526 41.065352 5.553549 -40.450611 -7.216704 -4.375800 67.646271 -5.153040 5.512709 10.641582 9.726934 -0.076885 -7.531328 0.373851 -11.456842 -47.847863 -1.845206 28.330987 65.562658 27.892695 -8.436818 33.275032 3.636322 0.189791 -20.405457 -6.552733
-15.425510 58.283622 47.998439 -175.360074 -30.373552 -4.080167 -0.833565 21.705004 3.641145 -0.281256 2.857026 0.289269 -0.446079 4.654913 0.471507 -1.555152 18.167616 1.663545 -0.351826 14.162686 -1.410499 -0.148706 -9.461125 -2.531850 1.683718 -2.737463 0.301412 21.399445 -23.983169 -21.627273 62.193878 -59.811604 -5.286151 25.835928 -22.405273 -53.565214 -5.622481 -4.812943 -1.744483 -3.581489 -17.543078 -2.488408 -84.893595 -50.915558 47.920871 -12.144823 -18.110088 41.063550 5.547917 -40.466507 -7.244924 -4.392219 67.639662 -5.163197 5.518829 10.649815 9.725381 -0.082190 -7.528987 0.374601 -11.474862 -47.869836 -1.859111 28.334158 65.560477 27.893892 -8.456301 33.299666 3.619020 0.197818 -20.431935 -6.546727
-15.428488 58.280092 48.001804 -175.311810 -30.365731 -4.082806 -0.881173 21.699506 3.621817 -0.279741 2.856827 0.290473 -0.449729 4.653661 0.471463 -1.586404 18.163402 1.658087 -0.348186 14.176454 -1.422587 -0.157400 -9.440246 -2.548642 1.714789 -2.731493 0.290792 21.396630 -23.977671 -21.627953 62.201459 -59.811204 -5.294793 25.832842 -22.406245 -53.569300 -5.597668 -4.808547 -1.753950 -3.606448 -17.546391 -2.479417 -84.888255 -50.911674 47.921810 -12.148621 -18.085673 41.073918 5.537383 -40.471013 -7.290641 -4.390590 67.638085 -5.144629 5.519550 10.655192 9.721406 -0.085306 -7.528581 0.373953 -11.513960 -47.885609 -1.876645 28.328792 65.562966 27.878702 -8.462272 33.325184 3.608576 0.208877 -20.451942 -6.544841
-15.431030 58.276011 48.005669 -175.300859 -30.356056 -4.069312 -0.899048 21.690112 3.602757 -0.271475 2.853613 0.296700 -0.456214 4.653180 0.467415 -1.596551 18.165163 1.653926 -0.376041 14.191816 -1.435592 -0.153357 -9.423394 -2.561891 1.714578 -2.736069 0.282368 21.412622 -23.970314 -21.633289 62.188913 -59.808558 -5.288022 25.827530 -22.413125 -53.577822 -5.594393 -4.807822 -1.757362 -3.612740 -17.546843 -2.474447 -84.906640 -50.906015 47.934515 -12.157581 -18.078137 41.058723 5.560684 -40.481953 -7.341701 -4.389978 67.634345 -5.116046 5.523742 10.661986 9.713513 -0.085728 -7.524224 0.370762 -11.517893 -47.902433 -1.893198 28.303258 65.570561 27.848002 -8.461853 33.348581 3.599796 0.220328 -20.473625 -6.543534
-15.433726 58.272860 48.007606 -175.259646 -30.356669 -4.071066 -0.924300 21.687960 3.596826 -0.283194 2.851519 0.291655 -0.459580 4.650770 0.466989 -1.607741 18.170712 1.649857 -0.374080 14.196390 -1.438385 -0.172526 -9.391274 -2.579245 1.713725 -2.738570 0.280534 21.426413 -23.966222 -21.638669 62.181159 -59.810164 -5.284804 25.827765 -22.415128 -53.576698 -5.590600 -4.808902 -1.762455 -3.613317 -17.543191 -2.469549 -84.931177 -50.903649 47.944733 -12.157167 -18.073075 41.061700 5.544457 -40.479246 -7.379824 -4.386826 67.633066 -5.097184 5.521174 10.665700 9.713308 -0.078813 -7.521725 0.360191 -11.547017 -47.908904 -1.911965 28.282787 65.581448 27.820182 -8.466388 33.360834 3.605475 0.225981 -20.500376 -6.553733
-15.434684 58.269431 48.010050 -175.221294 -30.351369 -4.081182 -0.961349 21.683998 3.587271 -0.278862 2.841385 0.292940 -0.462054 4.647230 0.466703 -1.628367 18.149280 1.648990 -0.375687 14.235890 -1.450184 -0.177449 -9.359014 -2.596874 1.719197 -2.709854 0.276502 21.441448 -23.960372 -21.643204 62.181259 -59.810597 -5.285384 25.827043 -22.413237 -53.573839 -5.579131 -4.780862 -1.778374 -3.621032 -17.536165 -2.461587 -84.941398 -50.897757 47.957725 -12.150850 -18.070544 41.061928 5.516798 -40.483861 -7.395145 -4.378942 67.629130 -5.086509 5.521666 10.674400 9.713112 -0.080639 -7.523361 0.357434 -11.606325 -47.920414 -1.898789 28.298263 65.591000 27.813250 -8.469059 33.364230 3.605279 0.230095 -20.511760 -6.556160
-15.435333 58.266033 48.012556 -175.195271 -30.343712 -4.086542 -0.974734 21.667693 3.586931 -0.289495 2.835050 0.290717 -0.464509 4.642360 0.466361 -1.639386 18.140638 1.647427 -0.388185 14.259370 -1.466201 -0.167632 -9.335366 -2.598978 1.714190 -2.691567 0.279121 21.457659 -23.949101 -21.645495 62.195854 -59.809950 -5.300654 25.827808 -22.411431 -53.565187 -5.563454 -4.762597 -1.789705 -3.640332 -17.525603 -2.456798 -84.948876 -50.896365 47.969444 -12.150007 -18.064906 41.061349 5.492515 -40.493263 -7.404737 -4.369755 67.624355 -5.078653 5.523475 10.685477 9.711692 -0.078957 -7.525786 0.355116 -11.679348 -47.933609 -1.862641 28.323824 65.601045 27.799977 -8.478426 33.366736 3.594348 0.240527 -20.517781 -6.551435
-15.436800 58.263275 48.014263 -175.177790 -30.339457 -4.083122 -0.996967 21.637009 3.575089 -0.289209 2.848679 0.289895 -0.468646 4.631491 0.466261 -1.650963 18.129323 1.645635 -0.380452 14.293734 -1.473140 -0.174910 -9.315273 -2.607035 1.710564 -2.669292 0.283877 21.483727 -23.937507 -21.657182 62.200299 -59.794965 -5.317463 25.817693 -22.424993 -53.559372 -5.547494 -4.741764 -1.804250 -3.657444 -17.521067 -2.448135 -84.946282 -50.897805 47.971241 -12.151660 -18.065609 41.053858 5.475980 -40.499521 -7.415973 -4.362237 67.620052 -5.077976 5.526172 10.693319 9.711853 -0.078922 -7.526108 0.353986 -11.692620 -47.939738 -1.872401 28.310224 65.611007 27.782806 -8.482571 33.355247 3.584171 0.247284 -20.520126 -6.548512
